<?xml version="1.0" standalone="no"?>
<!DOCTYPE svg PUBLIC "-//W3C//DTD SVG 20010904//EN"
 "http://www.w3.org/TR/2001/REC-SVG-20010904/DTD/svg10.dtd">
<svg version="1.0" xmlns="http://www.w3.org/2000/svg"
 width="596.000000pt" height="596.000000pt" viewBox="0 0 596.000000 596.000000"
 preserveAspectRatio="xMidYMid meet">
<metadata>
Created by potrace 1.14, written by Peter Selinger 2001-2017
</metadata>
<g transform="translate(0.000000,596.000000) scale(0.100000,-0.100000)"
fill="#000000" stroke="none">
<path d="M1717 4289 c-171 -43 -353 -185 -422 -327 -16 -33 -25 -40 -69 -50
-36 -8 -60 -22 -83 -47 -30 -32 -36 -48 -36 -99 1 -35 26 -96 43 -101 41 -13
50 -38 54 -151 4 -110 18 -187 43 -234 7 -14 13 -29 13 -33 0 -5 9 -21 19 -36
17 -23 20 -51 24 -231 6 -230 21 -333 72 -485 32 -97 111 -262 141 -296 8 -8
14 -19 14 -22 0 -7 33 -54 70 -102 47 -61 221 -222 283 -262 40 -26 74 -50 77
-53 12 -13 200 -100 259 -120 81 -27 208 -57 286 -67 76 -10 1263 -11 1330 -1
162 24 286 64 440 141 149 74 249 147 382 276 31 30 123 149 123 159 0 6 4 12
8 14 8 3 112 173 112 183 0 3 7 22 16 43 21 49 45 113 49 132 2 8 4 15 5 15 1
0 3 7 5 15 4 16 12 48 20 80 22 87 29 162 29 300 1 141 -4 193 -29 300 -56
243 -210 478 -418 639 -114 88 -305 179 -431 207 -12 3 -30 7 -41 9 -45 10
-66 15 -87 21 -97 26 -171 -32 -152 -118 7 -33 27 -46 136 -91 107 -45 166
-84 246 -164 96 -97 162 -215 187 -333 13 -59 16 -752 3 -792 -11 -38 -36 -58
-79 -65 -37 -6 -87 22 -100 55 -7 17 -11 144 -11 337 -1 328 -3 346 -49 378
-29 21 -111 12 -175 -19 -67 -33 -131 -103 -149 -164 -8 -28 -16 -86 -19 -135
-2 -56 -4 -60 -27 -61 -111 -4 -270 -107 -316 -207 -7 -15 -18 -38 -25 -52 -6
-13 -12 -35 -13 -47 -1 -13 -5 -39 -9 -58 l-7 -35 -97 2 -97 1 2 34 c2 32 13
112 19 133 2 6 5 20 8 33 7 33 63 134 91 164 16 17 20 28 12 30 -7 2 -83 4
-169 3 l-158 0 0 37 c0 103 60 158 178 163 37 1 68 4 70 5 2 3 17 7 32 9 5 0
28 18 49 39 94 91 71 253 -43 312 -42 22 -61 25 -125 23 -92 -3 -139 -8 -148
-17 -3 -3 -13 -6 -22 -6 -9 0 -29 -7 -45 -15 -15 -8 -32 -15 -37 -15 -5 0 -9
35 -9 79 0 78 0 79 36 106 106 81 64 235 -72 259 -27 5 -73 50 -74 71 -1 27
-129 163 -195 206 -91 61 -153 87 -255 109 -25 5 -175 9 -335 8 -240 -1 -302
-4 -358 -19z m47 -598 c15 -16 21 -34 21 -67 0 -38 -5 -50 -29 -71 -29 -25
-80 -30 -118 -11 -58 28 -54 143 5 168 35 15 97 5 121 -19z m780 4 c28 -24 37
-67 23 -108 -21 -63 -107 -78 -157 -28 -24 23 -28 35 -26 69 3 45 18 69 51 83
33 13 83 6 109 -16z"/>
</g>
</svg>
